<svg xmlns="http://www.w3.org/2000/svg" viewBox="0 0 320 240" preserveAspectRatio="xMidYMid meet">
  <defs>
    <linearGradient id="fruitGlow" x1="0" y1="0" x2="1" y2="1">
      <stop offset="0%" stop-color="#fef08a" />
      <stop offset="100%" stop-color="#fb7185" />
    </linearGradient>
  </defs>
  <rect width="320" height="240" rx="32" fill="#1f2937" />
  <circle cx="108" cy="130" r="60" fill="#34d399" />
  <circle cx="210" cy="120" r="52" fill="#fbbf24" />
  <circle cx="180" cy="70" r="40" fill="#f472b6" />
  <circle cx="98" cy="142" r="12" fill="#fff" opacity="0.8" />
  <circle cx="98" cy="118" r="10" fill="#111827" />
  <circle cx="190" cy="110" r="12" fill="#111827" />
  <circle cx="180" cy="62" r="8" fill="#111827" />
  <path d="M84 120c6 14 24 14 32 0" fill="none" stroke="#111827" stroke-width="10" stroke-linecap="round" />
  <path d="M162 152c10 18 34 18 44 0" fill="none" stroke="#111827" stroke-width="10" stroke-linecap="round" />
  <path d="M140 48c6-16 28-16 34 0" fill="none" stroke="#111827" stroke-width="8" stroke-linecap="round" />
  <circle cx="220" cy="45" r="22" fill="url(#fruitGlow)" opacity="0.45" />
  <path d="M224 28c0 10-8 18-18 18" fill="none" stroke="#fff" stroke-width="4" stroke-linecap="round" />
</svg>
